<?xml version="1.0" encoding="utf-8"?>
<svg width="39px" height="39px" viewBox="0 0 39 39" version="1.1" xmlns:xlink="http://www.w3.org/1999/xlink" xmlns="http://www.w3.org/2000/svg">
  <defs>
    <path d="M0 0L39 0L39 39L0 39L0 0Z" id="path_1" />
    <clipPath id="mask_1">
      <use xlink:href="#path_1" />
    </clipPath>
  </defs>
  <g id="Gmail-icon">
    <path d="M0 0L39 0L39 39L0 39L0 0Z" id="Background" fill="#FFFFFF" fill-opacity="0" fill-rule="evenodd" stroke="none" />
    <g clip-path="url(#mask_1)">
      <path d="M8.53125 6.5C5.62905 6.5 3.25 8.87905 3.25 11.7812L3.25 27.2187C3.25 30.1209 5.62905 32.5 8.53125 32.5L30.4687 32.5C33.3709 32.5 35.75 30.1209 35.75 27.2187L35.75 11.7812C35.75 8.87905 33.3709 6.5 30.4687 6.5L8.53125 6.5L8.53125 6.5ZM8.53125 8.9375L30.4687 8.9375C30.9506 8.9375 31.3952 9.06569 31.7906 9.27234L19.5 15.9167L7.20935 9.27234C7.60478 9.06569 8.04942 8.9375 8.53125 8.9375L8.53125 8.9375ZM8.125 15.3105L18.34 20.8314C18.7023 21.0272 19.1011 21.125 19.5 21.125C19.8989 21.125 20.2977 21.0272 20.66 20.8314L30.875 15.3105L30.875 30.0228C30.7414 30.0416 30.608 30.0625 30.4687 30.0625L8.53125 30.0625C8.39198 30.0625 8.25861 30.0416 8.125 30.0228L8.125 15.3105L8.125 15.3105Z" id="Shape" fill="#FF3D42" fill-rule="evenodd" stroke="none" />
    </g>
  </g>
</svg>