<?xml version="1.0" encoding="utf-8"?>
<svg width="27.039429px" height="27.03955px" viewBox="0 0 27.039429 27.03955" version="1.1" xmlns:xlink="http://www.w3.org/1999/xlink" xmlns="http://www.w3.org/2000/svg">
  <defs>
    <path d="M0 0L27.0394 0L27.0394 27.0394L0 27.0394L0 0Z" id="path_1" />
    <clipPath id="mask_1">
      <use xlink:href="#path_1" />
    </clipPath>
  </defs>
  <g id="Instagram-icon">
    <path d="M0 0L27.0394 0L27.0394 27.0394L0 27.0394L0 0Z" id="Background" fill="#FFFFFF" fill-opacity="0" fill-rule="evenodd" stroke="none" />
    <g clip-path="url(#mask_1)">
      <path d="M8.18297 0C3.67095 0 0 3.67095 0 8.18297L0 18.8564C0 23.3684 3.67095 27.0394 8.18297 27.0394L18.8564 27.0394C23.3684 27.0394 27.0394 23.3684 27.0394 18.8564L27.0394 8.18297C27.0394 3.67095 23.3684 0 18.8564 0L8.18297 0L8.18297 0ZM20.6353 4.98096C21.4216 4.98096 22.0584 5.61781 22.0584 6.40408C22.0584 7.18965 21.4216 7.82721 20.6353 7.82721C19.849 7.82721 19.2122 7.18965 19.2122 6.40408C19.2122 5.61781 19.849 4.98096 20.6353 4.98096L20.6353 4.98096ZM13.5197 6.4043C17.4432 6.4043 20.6353 9.59636 20.6353 13.5199C20.6353 17.4435 17.4432 20.6355 13.5197 20.6355C9.59612 20.6355 6.40405 17.4435 6.40405 13.5199C6.40405 9.59636 9.59612 6.4043 13.5197 6.4043L13.5197 6.4043ZM13.5196 8.53857C10.7687 8.53857 8.5387 10.7686 8.5387 13.5195C8.53869 16.2704 10.7687 18.5004 13.5196 18.5004C16.2705 18.5005 18.5005 16.2704 18.5006 13.5195C18.5006 10.7686 16.2705 8.5386 13.5197 8.53857L13.5196 8.53857Z" id="Shape" fill="#FF3D42" fill-rule="evenodd" stroke="none" />
    </g>
  </g>
</svg>