<?xml version="1.0" encoding="utf-8"?>
<svg width="27.039429px" height="27.03955px" viewBox="0 0 27.039429 27.03955" version="1.1" xmlns:xlink="http://www.w3.org/1999/xlink" xmlns="http://www.w3.org/2000/svg">
  <g id="Linkedin-icon">
    <path d="M21.9695 0L5.06988 0C2.27088 0 0 2.27088 0 5.06988L0 21.9695C0 24.7685 2.27088 27.0394 5.06988 27.0394L21.9695 27.0394C24.7685 27.0394 27.0394 24.7685 27.0394 21.9695L27.0394 5.06988C27.0394 2.27088 24.7685 0 21.9695 0L21.9695 0ZM8.3604 22.9527L4.15987 22.9527L4.1355 10.3755L8.33603 10.3755L8.3604 22.9527ZM6.15453 8.73008L6.13016 8.73008C4.75707 8.73008 3.87146 7.78354 3.87146 6.60544C3.87146 5.3989 4.7855 4.48486 6.18297 4.48486C7.58044 4.48486 8.4376 5.3989 8.46604 6.60544C8.46604 7.78354 7.57637 8.73008 6.15453 8.73008L6.15453 8.73008ZM22.9241 22.9528L18.687 22.9528L18.687 16.1198C18.687 14.4664 18.2483 13.3411 16.7696 13.3411C15.6402 13.3411 15.0309 14.1008 14.7384 14.8361C14.6287 15.1001 14.6003 15.4617 14.6003 15.8314L14.6003 22.9528L10.3429 22.9528L10.3185 10.3756L14.5759 10.3756L14.6003 12.1508C15.1446 11.3099 16.0505 10.1196 18.2199 10.1196C20.9092 10.1196 22.9201 11.8746 22.9201 15.6486L22.9201 22.9528L22.9241 22.9528Z" id="Shape" fill="#FF3D42" fill-rule="evenodd" stroke="none" />
  </g>
</svg>