<?xml version="1.0" encoding="utf-8"?>
<svg width="39px" height="39px" viewBox="0 0 39 39" version="1.1" xmlns:xlink="http://www.w3.org/1999/xlink" xmlns="http://www.w3.org/2000/svg">
  <defs>
    <path d="M0 0L39 0L39 39L0 39L0 0Z" id="path_1" />
    <clipPath id="mask_1">
      <use xlink:href="#path_1" />
    </clipPath>
  </defs>
  <g id="Whatsapp-icon">
    <path d="M0 0L39 0L39 39L0 39L0 0Z" id="Background" fill="#FFFFFF" fill-opacity="0" fill-rule="evenodd" stroke="none" />
    <g clip-path="url(#mask_1)">
      <path d="M19.5 3.25C10.5381 3.25 3.25 10.5381 3.25 19.5C3.25 22.0919 3.87563 24.6513 5.06187 26.9506L3.32312 33.1744C3.12812 33.8812 3.33125 34.6369 3.84312 35.1569C4.23312 35.5387 4.75312 35.75 5.28125 35.75C5.46813 35.75 5.64687 35.7256 5.82562 35.6769L12.0494 33.9381C14.3487 35.1244 16.9162 35.75 19.5 35.75C28.4619 35.75 35.75 28.4619 35.75 19.5C35.75 10.5381 28.4619 3.25 19.5 3.25L19.5 3.25ZM27.9175 25.4882C27.56 26.4875 25.805 27.4544 25.0169 27.5275C24.2287 27.6007 23.4894 27.885 19.8656 26.455C15.4944 24.7325 12.7319 20.2557 12.5206 19.9632C12.3012 19.6788 10.7656 17.6394 10.7656 15.5188C10.7656 13.4063 11.8787 12.3663 12.2687 11.9357C12.6669 11.505 13.13 11.3994 13.4144 11.3994C13.7069 11.3994 13.9912 11.3994 14.2431 11.4075C14.5438 11.4238 14.885 11.44 15.21 12.155C15.5919 13 16.4288 15.1288 16.5344 15.3482C16.64 15.5594 16.7131 15.8113 16.5669 16.0957C16.4288 16.38 16.3556 16.5588 16.1363 16.8107C15.925 17.0625 15.6894 17.3713 15.4944 17.5663C15.2831 17.7775 15.0556 18.0132 15.3075 18.4438C15.5594 18.8744 16.4206 20.28 17.6963 21.4175C19.3375 22.88 20.7188 23.335 21.1494 23.5544C21.58 23.7657 21.8319 23.7332 22.0838 23.4407C22.3356 23.1563 23.1563 22.1894 23.4487 21.7588C23.7331 21.3282 24.0175 21.4013 24.4156 21.5475C24.8056 21.6857 26.9181 22.7257 27.3488 22.945C27.7794 23.1563 28.0638 23.2619 28.1694 23.4407C28.275 23.6194 28.275 24.4807 27.9175 25.4882L27.9175 25.4882Z" id="Shape" fill="#FF3D42" fill-rule="evenodd" stroke="none" />
    </g>
  </g>
</svg>